<svg viewBox="0 0 612 292" xmlns="http://www.w3.org/2000/svg"><path d="m432.33 151.94 84.38-27.38" fill="none" stroke="#707070" stroke-linecap="round" stroke-linejoin="round" stroke-width="2"/><path d="m513.97 129.01 2.17-4.27-4.27-2.18 2.74-.89 4.27 2.18-2.18 4.27z" fill="#707070"/><path d="m432.33 157.85 84.38 27.39" fill="none" stroke="#707070" stroke-linecap="round" stroke-linejoin="round" stroke-width="2"/><path d="m511.87 187.23 4.27-2.17-2.17-4.28 2.73.89 2.18 4.27-4.27 2.18z" fill="#707070"/><path d="m68.1 155.9h88.72" fill="none" stroke="#707070" stroke-linecap="round" stroke-linejoin="round" stroke-width="2"/><path d="m152.84 159.29 3.39-3.39-3.39-3.39h2.87l3.39 3.39-3.39 3.39z" fill="#707070"/><path d="m68.1 61.9 89.34 84.43" fill="none" stroke="#707070" stroke-linecap="round" stroke-linejoin="round" stroke-width="2"/><path d="m152.22 146.06 4.79-.14-.13-4.79 2.09 1.97.13 4.8-4.79.13z" fill="#707070"/><path d="m68.1 256.4 89.4-90.87" fill="none" stroke="#707070" stroke-linecap="round" stroke-linejoin="round" stroke-width="2"/><path d="m157.13 170.74-.04-4.79-4.8.04 2.02-2.05 4.79-.04.04 4.79z" fill="#707070"/><path d="m247.17 138.18h-72.44a2.55 2.55 0 0 0 -2.55 2.55v24.79a2.55 2.55 0 0 0 2.55 2.55h72.44a2.55 2.55 0 0 0 2.55-2.55v-24.79a2.55 2.55 0 0 0 -2.55-2.55zm-.36 27h-71.72v-24.09h71.72zm-36.73-7.36v-9.35a.87.87 0 1 1 1.74 0v9.35a.87.87 0 1 1 -1.74 0zm6.5 0v-9.35a.88.88 0 0 1 1.75 0v9.35a.88.88 0 0 1 -1.75 0zm6.51 0v-9.35a.87.87 0 1 1 1.74 0v9.35a.87.87 0 0 1 -1.74 0zm6.5 0v-9.35a.88.88 0 0 1 1.75 0v9.35a.88.88 0 0 1 -1.75 0zm-45.53 0v-9.35a.87.87 0 1 1 1.74 0v9.35a.87.87 0 0 1 -1.74 0zm6.5 0v-9.35a.88.88 0 0 1 1.75 0v9.35a.88.88 0 0 1 -1.75 0zm6.51 0v-9.35a.87.87 0 1 1 1.74 0v9.35a.87.87 0 0 1 -1.74 0zm6.5 0v-9.35a.88.88 0 0 1 1.75 0v9.35a.88.88 0 0 1 -1.75 0zm32.53 0v-9.35a.87.87 0 1 1 1.74 0v9.35a.87.87 0 0 1 -1.74 0zm1.9 14.34a1.45 1.45 0 0 1 -1.45 1.45h-51.22a1.46 1.46 0 0 1 0-2.91h51.24a1.45 1.45 0 0 1 1.43 1.46z" fill="#4f8cc8"/><path d="m609.5 108.18h-72.45a2.55 2.55 0 0 0 -2.54 2.55v24.79a2.55 2.55 0 0 0 2.54 2.55h72.45a2.55 2.55 0 0 0 2.54-2.55v-24.79a2.55 2.55 0 0 0 -2.54-2.55zm-.37 27h-71.71v-24.09h71.71zm-36.73-7.38v-9.35a.88.88 0 0 1 1.75 0v9.35a.88.88 0 0 1 -1.75 0zm6.51 0v-9.35a.87.87 0 1 1 1.74 0v9.35a.87.87 0 1 1 -1.74 0zm6.5 0v-9.35a.88.88 0 0 1 1.75 0v9.35a.88.88 0 0 1 -1.75 0zm6.51 0v-9.35a.87.87 0 1 1 1.74 0v9.35a.87.87 0 1 1 -1.74 0zm-45.54 0v-9.35a.88.88 0 0 1 1.75 0v9.35a.88.88 0 0 1 -1.75 0zm6.51 0v-9.35a.87.87 0 1 1 1.74 0v9.35a.87.87 0 1 1 -1.74 0zm6.5 0v-9.35a.88.88 0 0 1 1.75 0v9.35a.88.88 0 0 1 -1.75 0zm6.51 0v-9.35a.87.87 0 1 1 1.74 0v9.35a.87.87 0 1 1 -1.74 0zm32.52 0v-9.35a.88.88 0 0 1 1.75 0v9.35a.88.88 0 0 1 -1.75 0zm1.93 14.36a1.46 1.46 0 0 1 -1.46 1.45h-51.23a1.46 1.46 0 0 1 0-2.91h51.23a1.46 1.46 0 0 1 1.46 1.46z" fill="#7d4788"/><path d="m609.5 177.18h-72.45a2.55 2.55 0 0 0 -2.54 2.55v24.79a2.55 2.55 0 0 0 2.54 2.55h72.45a2.55 2.55 0 0 0 2.54-2.55v-24.79a2.55 2.55 0 0 0 -2.54-2.55zm-.37 27h-71.71v-24.09h71.71zm-36.73-7.38v-9.35a.88.88 0 0 1 1.75 0v9.35a.88.88 0 0 1 -1.75 0zm6.51 0v-9.35a.87.87 0 0 1 1.74 0v9.35a.87.87 0 1 1 -1.74 0zm6.5 0v-9.35a.88.88 0 0 1 1.75 0v9.35a.88.88 0 0 1 -1.75 0zm6.51 0v-9.35a.87.87 0 0 1 1.74 0v9.35a.87.87 0 1 1 -1.74 0zm-45.54 0v-9.35a.88.88 0 0 1 1.75 0v9.35a.88.88 0 0 1 -1.75 0zm6.51 0v-9.35a.87.87 0 0 1 1.74 0v9.35a.87.87 0 1 1 -1.74 0zm6.5 0v-9.35a.88.88 0 0 1 1.75 0v9.35a.88.88 0 0 1 -1.75 0zm6.51 0v-9.35a.87.87 0 0 1 1.74 0v9.35a.87.87 0 1 1 -1.74 0zm32.52 0v-9.35a.88.88 0 0 1 1.75 0v9.35a.88.88 0 0 1 -1.75 0zm1.93 14.36a1.46 1.46 0 0 1 -1.46 1.45h-51.23a1.46 1.46 0 0 1 0-2.91h51.23a1.46 1.46 0 0 1 1.46 1.46z" fill="#7d4788"/><path d="m68.43 174.32v-38.68a3.06 3.06 0 0 0 -3.06-3h-58.28a3.06 3.06 0 0 0 -3.06 3v38.68h-4.03c.36 2.76 2.27 4.88 4.57 4.88h63.04c2.3 0 4.21-2.12 4.57-4.88zm-60.91-38.24h57.42v38.24h-57.42z" fill="#4f8cc8"/><path d="m68.43 271.32v-38.68a3.06 3.06 0 0 0 -3.06-3h-58.28a3.06 3.06 0 0 0 -3.06 3v38.68h-4.03c.36 2.76 2.27 4.88 4.57 4.88h63.04c2.3 0 4.21-2.12 4.57-4.88zm-60.91-38.24h57.42v38.24h-57.42z" fill="#4f8cc8"/><path d="m68.43 77.32v-38.68a3.06 3.06 0 0 0 -3.06-3h-58.28a3.06 3.06 0 0 0 -3.06 3v38.68h-4.03c.36 2.76 2.27 4.88 4.57 4.88h63.04c2.3 0 4.21-2.12 4.57-4.88zm-60.91-38.24h57.42v38.24h-57.42z" fill="#4f8cc8"/><path d="m421.77 142.75a23.58 23.58 0 0 0 -45.5-7.59 14.17 14.17 0 0 0 -4.35-.67 14.5 14.5 0 0 0 -14.49 14.51 14.85 14.85 0 0 0 .31 3 9.92 9.92 0 0 0 1.89 19.65h60.37a14.48 14.48 0 0 0 1.74-28.85zm-1.77 25.33h-60.4a6.4 6.4 0 1 1 0-12.79h.17l2.89.2-1-2.58a11 11 0 0 1 14.89-13.87l1.84.86.61-1.9a20.07 20.07 0 0 1 39.27 5.81v.62 1.77h1.73a11 11 0 1 1 0 21.92z" fill="#7d4788"/><path d="m250.1 155.9h88.72" fill="none" stroke="#707070" stroke-linecap="round" stroke-linejoin="round" stroke-width="2"/><path d="m334.83 159.29 3.4-3.39-3.4-3.39h2.88l3.4 3.39-3.4 3.39z" fill="#707070"/><g fill="#404242"><path d="m13.47 61.32a2 2 0 0 1 -1.5-.58 2.25 2.25 0 0 1 -.55-1.6 2.5 2.5 0 0 1 .51-1.65 1.69 1.69 0 0 1 1.37-.61 1.61 1.61 0 0 1 1.27.53 2 2 0 0 1 .47 1.4v.41h-2.95a1.68 1.68 0 0 0 .39 1.14 1.31 1.31 0 0 0 1 .39 3.34 3.34 0 0 0 1.37-.29v.54a3.25 3.25 0 0 1 -.65.21 3.21 3.21 0 0 1 -.73.11zm-.18-3.9a1.08 1.08 0 0 0 -.82.34 1.58 1.58 0 0 0 -.36.93h2.24a1.39 1.39 0 0 0 -.28-.94 1 1 0 0 0 -.78-.33z"/><path d="m17.37 59.05-1.48-2.05h.73l1.13 1.64 1.13-1.64h.73l-1.49 2.09 1.57 2.19h-.69l-1.2-1.73-1.21 1.73h-.73z"/><path d="m23.31 61.24-.13-.61a1.85 1.85 0 0 1 -.64.55 2 2 0 0 1 -.79.14 1.42 1.42 0 0 1 -1-.33 1.2 1.2 0 0 1 -.36-.93c0-.87.69-1.32 2.07-1.36h.73v-.26a1 1 0 0 0 -.22-.74.84.84 0 0 0 -.69-.25 2.8 2.8 0 0 0 -1.21.33l-.2-.49a2.61 2.61 0 0 1 .69-.27 2.78 2.78 0 0 1 .76-.1 1.59 1.59 0 0 1 1.13.34 1.41 1.41 0 0 1 .37 1.09v2.92zm-1.46-.46a1.32 1.32 0 0 0 .95-.33 1.22 1.22 0 0 0 .34-.93v-.38h-.65a2.41 2.41 0 0 0 -1.11.24.74.74 0 0 0 -.34.67.66.66 0 0 0 .21.53.9.9 0 0 0 .6.2z"/><path d="m30.7 61.24v-2.78a1.12 1.12 0 0 0 -.22-.77.84.84 0 0 0 -.68-.26 1.1 1.1 0 0 0 -.89.35 1.67 1.67 0 0 0 -.29 1.07v2.39h-.62v-2.78a1.12 1.12 0 0 0 -.22-.77.84.84 0 0 0 -.68-.26 1 1 0 0 0 -.89.37 2 2 0 0 0 -.29 1.2v2.24h-.65v-4.24h.53l.11.59a1.18 1.18 0 0 1 .52-.49 1.53 1.53 0 0 1 .74-.18 1.28 1.28 0 0 1 1.32.73 1.34 1.34 0 0 1 .55-.53 1.73 1.73 0 0 1 .83-.2 1.5 1.5 0 0 1 1.09.37 1.69 1.69 0 0 1 .36 1.2v2.79z"/><path d="m34.79 61.32a1.91 1.91 0 0 1 -.76-.15 1.58 1.58 0 0 1 -.58-.48h-.05a4.47 4.47 0 0 1 .05.71v1.76h-.65v-6.16h.53l.09.59a1.46 1.46 0 0 1 .58-.59 1.7 1.7 0 0 1 .76-.16 1.61 1.61 0 0 1 1.32.58 2.58 2.58 0 0 1 .46 1.64 2.52 2.52 0 0 1 -.47 1.64 1.61 1.61 0 0 1 -1.28.62zm-.09-3.89a1.13 1.13 0 0 0 -1 .37 1.91 1.91 0 0 0 -.3 1.15v.15a2.15 2.15 0 0 0 .3 1.29 1.14 1.14 0 0 0 1 .39 1 1 0 0 0 .87-.45 2.23 2.23 0 0 0 .31-1.24 2.15 2.15 0 0 0 -.31-1.23 1.06 1.06 0 0 0 -.87-.43z"/><path d="m38.49 61.24h-.65v-6.08h.65z"/><path d="m41.8 61.32a1.93 1.93 0 0 1 -1.49-.58 2.21 2.21 0 0 1 -.55-1.6 2.5 2.5 0 0 1 .51-1.65 1.68 1.68 0 0 1 1.37-.61 1.62 1.62 0 0 1 1.27.53 2 2 0 0 1 .47 1.4v.41h-3a1.68 1.68 0 0 0 .38 1.14 1.32 1.32 0 0 0 1 .39 3.3 3.3 0 0 0 1.36-.29v.54a2.89 2.89 0 0 1 -.65.21 3.15 3.15 0 0 1 -.67.11zm-.17-3.9a1.05 1.05 0 0 0 -.82.34 1.52 1.52 0 0 0 -.37.93h2.24a1.44 1.44 0 0 0 -.27-.94 1 1 0 0 0 -.78-.33z"/><path d="m44.46 60.83a.58.58 0 0 1 .12-.4.42.42 0 0 1 .34-.13.48.48 0 0 1 .36.13.58.58 0 0 1 .12.4.53.53 0 0 1 -.13.39.45.45 0 0 1 -.35.13.48.48 0 0 1 -.33-.12.56.56 0 0 1 -.13-.4z"/><path d="m48.44 61.32a1.83 1.83 0 0 1 -1.44-.57 2.35 2.35 0 0 1 -.51-1.62 2.44 2.44 0 0 1 .51-1.66 1.88 1.88 0 0 1 1.48-.59 2.68 2.68 0 0 1 .62.07 2 2 0 0 1 .48.15l-.2.56a2.88 2.88 0 0 0 -.47-.15 2.68 2.68 0 0 0 -.45 0c-.87 0-1.3.55-1.3 1.66a1.92 1.92 0 0 0 .32 1.21 1.1 1.1 0 0 0 .94.42 2.79 2.79 0 0 0 1.1-.23v.58a2.34 2.34 0 0 1 -1.08.17z"/><path d="m54.29 59.1a2.37 2.37 0 0 1 -.53 1.63 1.87 1.87 0 0 1 -1.46.59 1.94 1.94 0 0 1 -1-.27 1.82 1.82 0 0 1 -.68-.77 2.73 2.73 0 0 1 -.25-1.18 2.33 2.33 0 0 1 .53-1.63 1.85 1.85 0 0 1 1.45-.59 1.81 1.81 0 0 1 1.43.6 2.38 2.38 0 0 1 .51 1.62zm-3.29 0a2.12 2.12 0 0 0 .32 1.25 1.31 1.31 0 0 0 1.94 0 2 2 0 0 0 .33-1.25 2 2 0 0 0 -.33-1.24 1.32 1.32 0 0 0 -1.94 0 2 2 0 0 0 -.32 1.24z"/><path d="m61 61.24v-2.78a1.12 1.12 0 0 0 -.22-.77.85.85 0 0 0 -.68-.26 1.1 1.1 0 0 0 -.89.35 1.61 1.61 0 0 0 -.29 1.07v2.39h-.65v-2.78a1.12 1.12 0 0 0 -.22-.77.85.85 0 0 0 -.68-.26 1.06 1.06 0 0 0 -.9.37 2 2 0 0 0 -.27 1.2v2.24h-.65v-4.24h.53l.1.59a1.21 1.21 0 0 1 .51-.49 1.6 1.6 0 0 1 .75-.18 1.26 1.26 0 0 1 1.31.73 1.36 1.36 0 0 1 .56-.53 1.73 1.73 0 0 1 .83-.2 1.51 1.51 0 0 1 1.09.37 1.69 1.69 0 0 1 .36 1.2v2.79z"/><path d="m10.11 99.24-.11-.57h-.07a1.27 1.27 0 0 1 -.54.48 1.92 1.92 0 0 1 -.81.17 1.59 1.59 0 0 1 -1.17-.39 1.61 1.61 0 0 1 -.41-1.18v-2.83h1v2.66a1.2 1.2 0 0 0 .2.75.81.81 0 0 0 .64.25 1 1 0 0 0 .85-.35 1.92 1.92 0 0 0 .27-1.16v-2.15h.92v4.32z"/><path d="m15.21 98a1.12 1.12 0 0 1 -.46 1 2.14 2.14 0 0 1 -1.32.34 3.17 3.17 0 0 1 -1.38-.26v-.8a3.31 3.31 0 0 0 1.41.36c.57 0 .85-.17.85-.52a.42.42 0 0 0 -.09-.27 1.24 1.24 0 0 0 -.31-.23c-.14-.07-.34-.16-.6-.26a2.78 2.78 0 0 1 -1-.58 1.09 1.09 0 0 1 -.31-.78 1 1 0 0 1 .45-.86 2 2 0 0 1 1.21-.31 3.51 3.51 0 0 1 1.44.31l-.29.69a3.29 3.29 0 0 0 -1.18-.29c-.48 0-.73.14-.73.42a.43.43 0 0 0 .19.34 4.42 4.42 0 0 0 .83.39 3.52 3.52 0 0 1 .78.38 1.11 1.11 0 0 1 .36.39 1.27 1.27 0 0 1 .15.54z"/><path d="m18.24 99.32a2.11 2.11 0 0 1 -1.58-.59 2.22 2.22 0 0 1 -.56-1.62 2.45 2.45 0 0 1 .52-1.66 2 2 0 0 1 2.8-.09 2 2 0 0 1 .5 1.43v.5h-2.92a1.39 1.39 0 0 0 .34 1 1.15 1.15 0 0 0 .9.34 3.26 3.26 0 0 0 .72-.07 3.88 3.88 0 0 0 .7-.24v.68a2.84 2.84 0 0 1 -.68.22 3.64 3.64 0 0 1 -.74.1zm-.17-3.78a.91.91 0 0 0 -.7.28 1.25 1.25 0 0 0 -.31.8h2a1.23 1.23 0 0 0 -.26-.81.9.9 0 0 0 -.73-.27z"/><path d="m23.3 94.84a2.71 2.71 0 0 1 .46 0l-.09.86a1.84 1.84 0 0 0 -.41 0 1.18 1.18 0 0 0 -.89.36 1.29 1.29 0 0 0 -.37.94v2.26h-.92v-4.34h.72l.12.76h.08a1.65 1.65 0 0 1 .56-.61 1.34 1.34 0 0 1 .74-.23z"/><path d="m25.74 93.53.06.09a12 12 0 0 1 -.69 1.87h-.66c.17-.76.31-1.41.39-2z"/><path d="m29.55 98a1.12 1.12 0 0 1 -.46 1 2.18 2.18 0 0 1 -1.32.34 3.22 3.22 0 0 1 -1.39-.26v-.8a3.35 3.35 0 0 0 1.42.36c.57 0 .85-.17.85-.52a.42.42 0 0 0 -.09-.27 1.46 1.46 0 0 0 -.31-.23c-.15-.07-.34-.16-.6-.26a2.78 2.78 0 0 1 -1-.58 1 1 0 0 1 -.26-.75 1 1 0 0 1 .44-.86 2.1 2.1 0 0 1 1.17-.33 3.51 3.51 0 0 1 1.44.31l-.29.69a3.29 3.29 0 0 0 -1.15-.29c-.49 0-.73.14-.73.42a.43.43 0 0 0 .19.34 4.11 4.11 0 0 0 .83.39 3.77 3.77 0 0 1 .78.38 1.11 1.11 0 0 1 .36.39 1.27 1.27 0 0 1 .12.53z"/><path d="m34.08 99.32a1.5 1.5 0 0 1 -1.26-.59 2.64 2.64 0 0 1 -.46-1.64 2.71 2.71 0 0 1 .46-1.66 1.54 1.54 0 0 1 1.28-.59 1.48 1.48 0 0 1 1.29.63 4.71 4.71 0 0 1 -.07-.73v-1.58h.92v6.08h-.71l-.16-.57h-.05a1.46 1.46 0 0 1 -1.24.65zm.25-.74a1 1 0 0 0 .82-.32 1.72 1.72 0 0 0 .27-1v-.16a1.9 1.9 0 0 0 -.27-1.16 1 1 0 0 0 -.83-.35.85.85 0 0 0 -.75.4 2 2 0 0 0 -.26 1.11 2 2 0 0 0 .25 1.1.88.88 0 0 0 .77.38z"/><path d="m39.62 99.32a2.09 2.09 0 0 1 -1.57-.59 2.22 2.22 0 0 1 -.57-1.62 2.4 2.4 0 0 1 .52-1.66 1.79 1.79 0 0 1 1.44-.61 1.82 1.82 0 0 1 1.36.52 2 2 0 0 1 .49 1.43v.5h-2.87a1.44 1.44 0 0 0 .34 1 1.19 1.19 0 0 0 .91.34 3.23 3.23 0 0 0 .71-.07 4.25 4.25 0 0 0 .71-.24v.68a3 3 0 0 1 -.68.22 3.74 3.74 0 0 1 -.79.1zm-.17-3.78a.91.91 0 0 0 -.7.28 1.3 1.3 0 0 0 -.31.8h2a1.23 1.23 0 0 0 -.26-.81.87.87 0 0 0 -.73-.27z"/><path d="m43.45 99.24-1.64-4.32h1l.88 2.51a4.93 4.93 0 0 1 .27 1 7.59 7.59 0 0 1 .27-1l.88-2.51h1l-1.65 4.32z"/><path d="m46.9 93.78a.48.48 0 0 1 .52-.52.52.52 0 0 1 .38.14.5.5 0 0 1 .13.38.51.51 0 0 1 -.13.37.52.52 0 0 1 -.38.13.5.5 0 0 1 -.38-.13.51.51 0 0 1 -.14-.37zm1 5.46h-.9v-4.32h.91z"/><path d="m51.05 99.32a1.89 1.89 0 0 1 -1.49-.57 2.91 2.91 0 0 1 0-3.32 2 2 0 0 1 1.54-.59 2.85 2.85 0 0 1 1.23.26l-.28.73a2.79 2.79 0 0 0 -1-.22c-.75 0-1.12.49-1.12 1.49a1.77 1.77 0 0 0 .28 1.09 1 1 0 0 0 .82.36 2.39 2.39 0 0 0 1.16-.3v.8a1.73 1.73 0 0 1 -.53.21 3.2 3.2 0 0 1 -.61.06z"/><path d="m55.23 99.32a2.09 2.09 0 0 1 -1.57-.59 2.22 2.22 0 0 1 -.57-1.62 2.4 2.4 0 0 1 .53-1.66 2 2 0 0 1 2.8-.09 2 2 0 0 1 .49 1.43v.5h-2.91a1.44 1.44 0 0 0 .34 1 1.19 1.19 0 0 0 .91.34 3.23 3.23 0 0 0 .71-.07 4 4 0 0 0 .71-.24v.68a3 3 0 0 1 -.68.22 3.74 3.74 0 0 1 -.76.1zm-.16-3.78a.92.92 0 0 0 -.71.28 1.3 1.3 0 0 0 -.31.8h2a1.18 1.18 0 0 0 -.26-.81.87.87 0 0 0 -.72-.27z"/><path d="m59.7 97.05a6.11 6.11 0 0 1 .3-1.94 4.76 4.76 0 0 1 .87-1.58h.8a5.81 5.81 0 0 0 -.83 1.65 6.18 6.18 0 0 0 -.29 1.82 6.06 6.06 0 0 0 .29 1.85 5.77 5.77 0 0 0 .83 1.62h-.8a4.71 4.71 0 0 1 -.87-1.47 6 6 0 0 1 -.3-1.95z"/><path d="m66.38 99.24-.57-1.58h-2.19l-.55 1.58h-1l2.14-5.73h1l2.14 5.73zm-.82-2.39-.56-1.55a5.09 5.09 0 0 1 -.16-.5c-.07-.22-.12-.38-.15-.49a8 8 0 0 1 -.31 1l-.51 1.49z"/><path d="m69.74 97.05a5.93 5.93 0 0 1 -.3 1.91 4.52 4.52 0 0 1 -.87 1.55h-.8a5.65 5.65 0 0 0 .83-1.62 6.06 6.06 0 0 0 .29-1.89 6.13 6.13 0 0 0 -.29-1.86 5.56 5.56 0 0 0 -.83-1.65h.8a4.91 4.91 0 0 1 .87 1.59 6.05 6.05 0 0 1 .3 1.97z"/><path d="m10.11 291.24-.13-.57h-.05a1.27 1.27 0 0 1 -.54.48 1.92 1.92 0 0 1 -.81.17 1.59 1.59 0 0 1 -1.17-.39 1.61 1.61 0 0 1 -.41-1.18v-2.83h1v2.66a1.2 1.2 0 0 0 .2.75.81.81 0 0 0 .64.25 1 1 0 0 0 .85-.35 1.92 1.92 0 0 0 .27-1.16v-2.15h.92v4.32z"/><path d="m15.21 290a1.12 1.12 0 0 1 -.46 1 2.14 2.14 0 0 1 -1.32.34 3.17 3.17 0 0 1 -1.38-.26v-.8a3.31 3.31 0 0 0 1.41.36c.57 0 .85-.17.85-.52a.42.42 0 0 0 -.09-.27 1.24 1.24 0 0 0 -.31-.23c-.14-.07-.34-.16-.6-.26a2.78 2.78 0 0 1 -1-.58 1.09 1.09 0 0 1 -.31-.78 1 1 0 0 1 .45-.86 2 2 0 0 1 1.21-.31 3.51 3.51 0 0 1 1.44.31l-.29.69a3.29 3.29 0 0 0 -1.18-.29c-.48 0-.73.14-.73.42a.43.43 0 0 0 .19.34 4.42 4.42 0 0 0 .83.39 3.52 3.52 0 0 1 .78.38 1.11 1.11 0 0 1 .36.39 1.27 1.27 0 0 1 .15.54z"/><path d="m18.24 291.32a2.11 2.11 0 0 1 -1.58-.59 2.22 2.22 0 0 1 -.56-1.62 2.45 2.45 0 0 1 .52-1.66 2 2 0 0 1 2.8-.09 2 2 0 0 1 .5 1.43v.5h-2.92a1.39 1.39 0 0 0 .34 1 1.15 1.15 0 0 0 .9.34 3.26 3.26 0 0 0 .72-.07 3.88 3.88 0 0 0 .7-.24v.68a2.84 2.84 0 0 1 -.68.22 3.64 3.64 0 0 1 -.74.1zm-.17-3.78a.91.91 0 0 0 -.7.28 1.25 1.25 0 0 0 -.31.8h2a1.23 1.23 0 0 0 -.26-.81.9.9 0 0 0 -.73-.27z"/><path d="m23.3 286.84a2.71 2.71 0 0 1 .46 0l-.09.86a1.84 1.84 0 0 0 -.41-.05 1.18 1.18 0 0 0 -.89.36 1.29 1.29 0 0 0 -.37.99v2.26h-.92v-4.32h.72l.12.76h.08a1.65 1.65 0 0 1 .56-.61 1.34 1.34 0 0 1 .74-.25z"/><path d="m25.74 285.53.06.09a12 12 0 0 1 -.69 1.87h-.66c.17-.76.31-1.41.39-2z"/><path d="m29.55 290a1.12 1.12 0 0 1 -.46 1 2.18 2.18 0 0 1 -1.32.34 3.22 3.22 0 0 1 -1.39-.26v-.8a3.35 3.35 0 0 0 1.42.36c.57 0 .85-.17.85-.52a.42.42 0 0 0 -.09-.27 1.46 1.46 0 0 0 -.31-.23c-.15-.07-.34-.16-.6-.26a2.78 2.78 0 0 1 -1-.58 1 1 0 0 1 -.26-.75 1 1 0 0 1 .44-.86 2.1 2.1 0 0 1 1.22-.31 3.51 3.51 0 0 1 1.44.31l-.29.69a3.29 3.29 0 0 0 -1.18-.29c-.49 0-.73.14-.73.42a.43.43 0 0 0 .19.34 4.11 4.11 0 0 0 .83.39 3.77 3.77 0 0 1 .78.38 1.11 1.11 0 0 1 .36.39 1.27 1.27 0 0 1 .1.51z"/><path d="m34.08 291.32a1.5 1.5 0 0 1 -1.26-.59 2.64 2.64 0 0 1 -.46-1.64 2.71 2.71 0 0 1 .46-1.66 1.54 1.54 0 0 1 1.28-.59 1.48 1.48 0 0 1 1.29.63 4.71 4.71 0 0 1 -.07-.73v-1.58h.92v6.08h-.71l-.16-.57h-.05a1.46 1.46 0 0 1 -1.24.65zm.25-.74a1 1 0 0 0 .82-.32 1.72 1.72 0 0 0 .27-1v-.13a1.9 1.9 0 0 0 -.27-1.16 1 1 0 0 0 -.83-.35.85.85 0 0 0 -.75.4 2 2 0 0 0 -.26 1.11 2 2 0 0 0 .25 1.1.88.88 0 0 0 .77.35z"/><path d="m39.62 291.32a2.09 2.09 0 0 1 -1.57-.59 2.22 2.22 0 0 1 -.57-1.62 2.4 2.4 0 0 1 .53-1.66 1.79 1.79 0 0 1 1.44-.61 1.82 1.82 0 0 1 1.36.52 2 2 0 0 1 .49 1.43v.5h-2.88a1.44 1.44 0 0 0 .34 1 1.19 1.19 0 0 0 .91.34 3.23 3.23 0 0 0 .71-.07 4.25 4.25 0 0 0 .71-.24v.68a3 3 0 0 1 -.68.22 3.74 3.74 0 0 1 -.79.1zm-.17-3.78a.91.91 0 0 0 -.7.28 1.3 1.3 0 0 0 -.31.8h2a1.23 1.23 0 0 0 -.26-.81.87.87 0 0 0 -.73-.27z"/><path d="m43.45 291.24-1.64-4.32h1l.88 2.51a4.93 4.93 0 0 1 .27 1 7.59 7.59 0 0 1 .27-1l.88-2.51h1l-1.65 4.32z"/><path d="m46.9 285.78a.48.48 0 0 1 .52-.52.52.52 0 0 1 .38.14.5.5 0 0 1 .13.38.51.51 0 0 1 -.13.37.52.52 0 0 1 -.38.13.5.5 0 0 1 -.38-.13.51.51 0 0 1 -.14-.37zm1 5.46h-.9v-4.32h.91z"/><path d="m51.05 291.32a1.89 1.89 0 0 1 -1.49-.57 2.91 2.91 0 0 1 0-3.32 2 2 0 0 1 1.54-.59 2.85 2.85 0 0 1 1.23.26l-.28.73a2.79 2.79 0 0 0 -1-.22c-.75 0-1.12.49-1.12 1.49a1.77 1.77 0 0 0 .28 1.09 1 1 0 0 0 .82.36 2.39 2.39 0 0 0 1.16-.3v.8a2 2 0 0 1 -.53.21 3.2 3.2 0 0 1 -.61.06z"/><path d="m55.23 291.32a2.09 2.09 0 0 1 -1.57-.59 2.22 2.22 0 0 1 -.57-1.62 2.4 2.4 0 0 1 .53-1.66 2 2 0 0 1 2.8-.09 2 2 0 0 1 .49 1.43v.5h-2.91a1.44 1.44 0 0 0 .34 1 1.19 1.19 0 0 0 .91.34 3.23 3.23 0 0 0 .71-.07 4 4 0 0 0 .71-.24v.68a3 3 0 0 1 -.68.22 3.74 3.74 0 0 1 -.76.1zm-.16-3.78a.92.92 0 0 0 -.71.28 1.3 1.3 0 0 0 -.31.8h2a1.18 1.18 0 0 0 -.26-.81.87.87 0 0 0 -.72-.27z"/><path d="m59.7 289.05a6.11 6.11 0 0 1 .3-1.94 4.76 4.76 0 0 1 .87-1.58h.8a5.81 5.81 0 0 0 -.83 1.65 6.18 6.18 0 0 0 -.29 1.86 6.06 6.06 0 0 0 .29 1.85 5.77 5.77 0 0 0 .83 1.62h-.8a4.71 4.71 0 0 1 -.87-1.51 6 6 0 0 1 -.3-1.95z"/><path d="m66.38 291.24-.57-1.58h-2.19l-.55 1.58h-1l2.14-5.73h1l2.14 5.73zm-.82-2.39-.56-1.55a5.09 5.09 0 0 1 -.16-.5c-.07-.22-.12-.38-.15-.49a8 8 0 0 1 -.31 1.05l-.51 1.49z"/><path d="m69.74 289.05a5.93 5.93 0 0 1 -.3 1.91 4.61 4.61 0 0 1 -.87 1.55h-.8a5.65 5.65 0 0 0 .83-1.62 6.06 6.06 0 0 0 .29-1.85 6.13 6.13 0 0 0 -.29-1.86 5.56 5.56 0 0 0 -.83-1.65h.8a4.8 4.8 0 0 1 .87 1.59 6.05 6.05 0 0 1 .3 1.93z"/><path d="m10.11 196.24-.13-.57h-.05a1.27 1.27 0 0 1 -.54.48 1.92 1.92 0 0 1 -.81.17 1.59 1.59 0 0 1 -1.17-.39 1.61 1.61 0 0 1 -.41-1.18v-2.83h1v2.66a1.2 1.2 0 0 0 .2.75.81.81 0 0 0 .64.25 1 1 0 0 0 .85-.35 1.92 1.92 0 0 0 .27-1.16v-2.15h.92v4.32z"/><path d="m15.21 195a1.12 1.12 0 0 1 -.46 1 2.14 2.14 0 0 1 -1.32.34 3.17 3.17 0 0 1 -1.38-.26v-.8a3.31 3.31 0 0 0 1.41.36c.57 0 .85-.17.85-.52a.42.42 0 0 0 -.09-.27 1.24 1.24 0 0 0 -.31-.23c-.14-.07-.34-.16-.6-.26a2.78 2.78 0 0 1 -1-.58 1.09 1.09 0 0 1 -.31-.78 1 1 0 0 1 .45-.86 2 2 0 0 1 1.21-.31 3.51 3.51 0 0 1 1.44.31l-.29.69a3.29 3.29 0 0 0 -1.18-.29c-.48 0-.73.14-.73.42a.43.43 0 0 0 .19.34 4.42 4.42 0 0 0 .83.39 3.52 3.52 0 0 1 .78.38 1.11 1.11 0 0 1 .36.39 1.27 1.27 0 0 1 .15.54z"/><path d="m18.24 196.32a2.11 2.11 0 0 1 -1.58-.59 2.22 2.22 0 0 1 -.56-1.62 2.45 2.45 0 0 1 .52-1.66 2 2 0 0 1 2.8-.09 2 2 0 0 1 .5 1.43v.5h-2.92a1.39 1.39 0 0 0 .34 1 1.15 1.15 0 0 0 .9.34 3.26 3.26 0 0 0 .72-.07 3.88 3.88 0 0 0 .7-.24v.68a2.84 2.84 0 0 1 -.68.22 3.64 3.64 0 0 1 -.74.1zm-.17-3.78a.91.91 0 0 0 -.7.28 1.25 1.25 0 0 0 -.31.8h2a1.23 1.23 0 0 0 -.26-.81.9.9 0 0 0 -.73-.27z"/><path d="m23.3 191.84a2.71 2.71 0 0 1 .46 0l-.09.86a1.84 1.84 0 0 0 -.41-.05 1.18 1.18 0 0 0 -.89.36 1.29 1.29 0 0 0 -.37.99v2.26h-.92v-4.32h.72l.12.76h.08a1.65 1.65 0 0 1 .56-.61 1.34 1.34 0 0 1 .74-.25z"/><path d="m25.74 190.53.06.09a12 12 0 0 1 -.69 1.87h-.66c.17-.76.31-1.41.39-2z"/><path d="m29.55 195a1.12 1.12 0 0 1 -.46 1 2.18 2.18 0 0 1 -1.32.34 3.22 3.22 0 0 1 -1.39-.26v-.8a3.35 3.35 0 0 0 1.42.36c.57 0 .85-.17.85-.52a.42.42 0 0 0 -.09-.27 1.46 1.46 0 0 0 -.31-.23c-.15-.07-.34-.16-.6-.26a2.78 2.78 0 0 1 -1-.58 1 1 0 0 1 -.26-.75 1 1 0 0 1 .44-.86 2.1 2.1 0 0 1 1.22-.31 3.51 3.51 0 0 1 1.44.31l-.29.69a3.29 3.29 0 0 0 -1.18-.29c-.49 0-.73.14-.73.42a.43.43 0 0 0 .19.34 4.11 4.11 0 0 0 .83.39 3.77 3.77 0 0 1 .78.38 1.11 1.11 0 0 1 .36.39 1.27 1.27 0 0 1 .1.51z"/><path d="m34.08 196.32a1.5 1.5 0 0 1 -1.26-.59 2.64 2.64 0 0 1 -.46-1.64 2.71 2.71 0 0 1 .46-1.66 1.54 1.54 0 0 1 1.28-.59 1.48 1.48 0 0 1 1.29.63 4.71 4.71 0 0 1 -.07-.73v-1.58h.92v6.08h-.71l-.16-.57h-.05a1.46 1.46 0 0 1 -1.24.65zm.25-.74a1 1 0 0 0 .82-.32 1.72 1.72 0 0 0 .27-1v-.13a1.9 1.9 0 0 0 -.27-1.16 1 1 0 0 0 -.83-.35.85.85 0 0 0 -.75.4 2 2 0 0 0 -.26 1.11 2 2 0 0 0 .25 1.1.88.88 0 0 0 .77.35z"/><path d="m39.62 196.32a2.09 2.09 0 0 1 -1.57-.59 2.22 2.22 0 0 1 -.57-1.62 2.4 2.4 0 0 1 .53-1.66 1.79 1.79 0 0 1 1.44-.61 1.82 1.82 0 0 1 1.36.52 2 2 0 0 1 .49 1.43v.5h-2.88a1.44 1.44 0 0 0 .34 1 1.19 1.19 0 0 0 .91.34 3.23 3.23 0 0 0 .71-.07 4.25 4.25 0 0 0 .71-.24v.68a3 3 0 0 1 -.68.22 3.74 3.74 0 0 1 -.79.1zm-.17-3.78a.91.91 0 0 0 -.7.28 1.3 1.3 0 0 0 -.31.8h2a1.23 1.23 0 0 0 -.26-.81.87.87 0 0 0 -.73-.27z"/><path d="m43.45 196.24-1.64-4.32h1l.88 2.51a4.93 4.93 0 0 1 .27 1 7.59 7.59 0 0 1 .27-1l.88-2.51h1l-1.65 4.32z"/><path d="m46.9 190.78a.48.48 0 0 1 .52-.52.52.52 0 0 1 .38.14.5.5 0 0 1 .13.38.51.51 0 0 1 -.13.37.52.52 0 0 1 -.38.13.5.5 0 0 1 -.38-.13.51.51 0 0 1 -.14-.37zm1 5.46h-.9v-4.32h.91z"/><path d="m51.05 196.32a1.89 1.89 0 0 1 -1.49-.57 2.91 2.91 0 0 1 0-3.32 2 2 0 0 1 1.54-.59 2.85 2.85 0 0 1 1.23.26l-.28.73a2.79 2.79 0 0 0 -1-.22c-.75 0-1.12.49-1.12 1.49a1.77 1.77 0 0 0 .28 1.09 1 1 0 0 0 .82.36 2.39 2.39 0 0 0 1.16-.3v.8a2 2 0 0 1 -.53.21 3.2 3.2 0 0 1 -.61.06z"/><path d="m55.23 196.32a2.09 2.09 0 0 1 -1.57-.59 2.22 2.22 0 0 1 -.57-1.62 2.4 2.4 0 0 1 .53-1.66 2 2 0 0 1 2.8-.09 2 2 0 0 1 .49 1.43v.5h-2.91a1.44 1.44 0 0 0 .34 1 1.19 1.19 0 0 0 .91.34 3.23 3.23 0 0 0 .71-.07 4 4 0 0 0 .71-.24v.68a3 3 0 0 1 -.68.22 3.74 3.74 0 0 1 -.76.1zm-.16-3.78a.92.92 0 0 0 -.71.28 1.3 1.3 0 0 0 -.31.8h2a1.18 1.18 0 0 0 -.26-.81.87.87 0 0 0 -.72-.27z"/><path d="m59.7 194.05a6.11 6.11 0 0 1 .3-1.94 4.76 4.76 0 0 1 .87-1.58h.8a5.81 5.81 0 0 0 -.83 1.65 6.18 6.18 0 0 0 -.29 1.86 6.06 6.06 0 0 0 .29 1.85 5.77 5.77 0 0 0 .83 1.62h-.8a4.71 4.71 0 0 1 -.87-1.51 6 6 0 0 1 -.3-1.95z"/><path d="m66.38 196.24-.57-1.58h-2.19l-.55 1.58h-1l2.14-5.73h1l2.14 5.73zm-.82-2.39-.56-1.55a5.09 5.09 0 0 1 -.16-.5c-.07-.22-.12-.38-.15-.49a8 8 0 0 1 -.31 1.05l-.51 1.49z"/><path d="m69.74 194.05a5.93 5.93 0 0 1 -.3 1.91 4.61 4.61 0 0 1 -.87 1.55h-.8a5.65 5.65 0 0 0 .83-1.62 6.06 6.06 0 0 0 .29-1.85 6.13 6.13 0 0 0 -.29-1.86 5.56 5.56 0 0 0 -.83-1.65h.8a4.8 4.8 0 0 1 .87 1.59 6.05 6.05 0 0 1 .3 1.93z"/><path d="m181.3 186.62h-1.05v3.62h-.92v-3.62h-.72v-.43l.72-.28v-.29a1.56 1.56 0 0 1 .35-1.13 1.46 1.46 0 0 1 1.1-.37 2.93 2.93 0 0 1 1 .16l-.25.7a1.89 1.89 0 0 0 -.65-.11.52.52 0 0 0 -.45.19.94.94 0 0 0 -.14.58v.28h1.05z"/><path d="m186 188.07a2.39 2.39 0 0 1 -.54 1.66 2 2 0 0 1 -1.51.59 2.07 2.07 0 0 1 -1.07-.27 1.9 1.9 0 0 1 -.72-.79 2.78 2.78 0 0 1 -.25-1.19 2.35 2.35 0 0 1 .54-1.64 2 2 0 0 1 1.52-.59 1.89 1.89 0 0 1 1.49.61 2.33 2.33 0 0 1 .54 1.62zm-3.14 0c0 1 .37 1.5 1.1 1.5s1.1-.5 1.1-1.5-.37-1.48-1.1-1.48a.93.93 0 0 0 -.84.39 1.87 1.87 0 0 0 -.25 1.09z"/><path d="m189.38 185.84a2.71 2.71 0 0 1 .46 0l-.09.86a1.77 1.77 0 0 0 -.41-.05 1.18 1.18 0 0 0 -.89.36 1.29 1.29 0 0 0 -.34.93v2.26h-.92v-4.32h.72l.12.76h.05a1.65 1.65 0 0 1 .56-.61 1.34 1.34 0 0 1 .74-.19z"/><path d="m194.6 190.24-.56-2c-.07-.22-.19-.71-.37-1.49-.15.7-.27 1.2-.36 1.49l-.57 2h-1l-1.21-4.32h.94l.55 2.13c.12.53.21 1 .26 1.35a4.8 4.8 0 0 1 .12-.65c.05-.25.09-.43.13-.56l.66-2.27h1l.63 2.27c0 .13.09.33.15.59a4.16 4.16 0 0 1 .1.61 10.44 10.44 0 0 1 .27-1.34l.56-2.13h.92l-1.22 4.32z"/><path d="m200.38 190.24-.18-.6a1.78 1.78 0 0 1 -.62.54 2.16 2.16 0 0 1 -.82.14 1.41 1.41 0 0 1 -1-.34 1.3 1.3 0 0 1 -.36-1 1.13 1.13 0 0 1 .5-1 2.8 2.8 0 0 1 1.51-.38h.75v-.23a.87.87 0 0 0 -.2-.62.78.78 0 0 0 -.6-.2 2.18 2.18 0 0 0 -.63.09c-.21.07-.4.15-.59.23l-.3-.65a2.83 2.83 0 0 1 .77-.28 3.23 3.23 0 0 1 .79-.1 1.88 1.88 0 0 1 1.25.36 1.41 1.41 0 0 1 .42 1.13v2.91zm-1.37-.62a1.14 1.14 0 0 0 .8-.28 1 1 0 0 0 .31-.79v-.37h-.56a1.93 1.93 0 0 0 -.94.22.66.66 0 0 0 -.3.59.58.58 0 0 0 .18.45.74.74 0 0 0 .5.18z"/><path d="m204.61 185.84a2.71 2.71 0 0 1 .46 0l-.09.86a1.75 1.75 0 0 0 -.4-.05 1.19 1.19 0 0 0 -.9.36 1.29 1.29 0 0 0 -.34.93v2.26h-.92v-4.32h.72l.12.76h.05a1.65 1.65 0 0 1 .56-.61 1.34 1.34 0 0 1 .74-.19z"/><path d="m207.46 190.32a1.53 1.53 0 0 1 -1.27-.59 3.22 3.22 0 0 1 0-3.3 1.53 1.53 0 0 1 1.27-.59 1.5 1.5 0 0 1 1.3.63 4.71 4.71 0 0 1 -.07-.73v-1.58h.92v6.08h-.61l-.16-.57a1.47 1.47 0 0 1 -1.38.65zm.24-.74a1 1 0 0 0 .83-.32 1.65 1.65 0 0 0 .26-1v-.13a2 2 0 0 0 -.26-1.16 1 1 0 0 0 -.84-.35.82.82 0 0 0 -.74.4 1.94 1.94 0 0 0 -.26 1.11 2 2 0 0 0 .25 1.1.86.86 0 0 0 .76.35z"/><path d="m215.25 190.32a1.52 1.52 0 0 1 -1.27-.59v.66 1.77h-.92v-6.24h.74a5.13 5.13 0 0 1 .13.58 1.44 1.44 0 0 1 1.29-.66 1.5 1.5 0 0 1 1.26.59 3.22 3.22 0 0 1 0 3.3 1.53 1.53 0 0 1 -1.23.59zm-.22-3.73a1 1 0 0 0 -.8.32 1.68 1.68 0 0 0 -.25 1v.13a2 2 0 0 0 .25 1.15 1 1 0 0 0 .82.35.83.83 0 0 0 .73-.39 2 2 0 0 0 .26-1.11 1.92 1.92 0 0 0 -.26-1.1.85.85 0 0 0 -.78-.35z"/><path d="m220.38 185.84a2.58 2.58 0 0 1 .45 0l-.08.86a1.92 1.92 0 0 0 -.41-.05 1.15 1.15 0 0 0 -.89.36 1.29 1.29 0 0 0 -.35.93v2.26h-.91v-4.32h.72l.12.76a1.74 1.74 0 0 1 .56-.61 1.35 1.35 0 0 1 .79-.19z"/><path d="m225.58 188.07a2.39 2.39 0 0 1 -.54 1.66 2 2 0 0 1 -1.51.59 2.07 2.07 0 0 1 -1.07-.27 1.9 1.9 0 0 1 -.72-.79 2.64 2.64 0 0 1 -.25-1.19 2.35 2.35 0 0 1 .54-1.64 2 2 0 0 1 1.52-.59 1.87 1.87 0 0 1 1.48.61 2.29 2.29 0 0 1 .55 1.62zm-3.14 0c0 1 .36 1.5 1.1 1.5s1.1-.5 1.1-1.5-.37-1.48-1.11-1.48a.92.92 0 0 0 -.83.39 1.87 1.87 0 0 0 -.26 1.09z"/><path d="m227.62 188-1.45-2.11h1.05l1 1.51 1-1.51h1l-1.44 2.11 1.53 2.21h-1l-1.07-1.62-1.06 1.62h-1z"/><path d="m230.84 185.92h1l.88 2.45a5.39 5.39 0 0 1 .27 1 3 3 0 0 1 .13-.52q.09-.3 1-2.91h1l-1.85 4.9a1.75 1.75 0 0 1 -1.68 1.34 2.88 2.88 0 0 1 -.59-.06v-.73a2.26 2.26 0 0 0 .47 0 1 1 0 0 0 .94-.77l.16-.41z"/><path d="m237.53 188.05a6.11 6.11 0 0 1 .3-1.94 4.61 4.61 0 0 1 .88-1.58h.8a5.59 5.59 0 0 0 -.84 1.65 6.18 6.18 0 0 0 -.29 1.86 6.06 6.06 0 0 0 .29 1.85 5.77 5.77 0 0 0 .83 1.62h-.79a4.56 4.56 0 0 1 -.88-1.55 6 6 0 0 1 -.3-1.91z"/><path d="m240.63 184.53h1.7a3.18 3.18 0 0 1 1.7.34 1.21 1.21 0 0 1 .53 1.09 1.33 1.33 0 0 1 -.26.83 1.17 1.17 0 0 1 -.74.42 1.38 1.38 0 0 1 .88.45 1.33 1.33 0 0 1 .29.9 1.49 1.49 0 0 1 -.54 1.21 2.32 2.32 0 0 1 -1.49.43h-2.07zm.94 2.36h.9a1.46 1.46 0 0 0 .85-.19.7.7 0 0 0 .27-.63.63.63 0 0 0 -.29-.58 1.79 1.79 0 0 0 -.92-.18h-.81zm0 .76v1.81h1a1.42 1.42 0 0 0 .88-.23.83.83 0 0 0 .3-.71.76.76 0 0 0 -.3-.66 1.64 1.64 0 0 0 -.93-.21z"/><path d="m247.38 188.05a5.93 5.93 0 0 1 -.3 1.91 4.61 4.61 0 0 1 -.87 1.55h-.8a5.65 5.65 0 0 0 .83-1.62 6.06 6.06 0 0 0 .29-1.85 6.13 6.13 0 0 0 -.29-1.86 5.81 5.81 0 0 0 -.83-1.65h.8a4.8 4.8 0 0 1 .87 1.59 6.05 6.05 0 0 1 .3 1.93z"/><path d="m233.16 13.71h-1.85v-11.42h6.45v1.58h-4.6v3.57h4.31v1.56h-4.31z"/><path d="m247.32 9.38a4.72 4.72 0 0 1 -1.08 3.3 3.92 3.92 0 0 1 -3 1.19 4.08 4.08 0 0 1 -2.14-.55 3.64 3.64 0 0 1 -1.43-1.57 5.37 5.37 0 0 1 -.5-2.37 4.69 4.69 0 0 1 1.08-3.29 3.93 3.93 0 0 1 3-1.18 3.83 3.83 0 0 1 3 1.21 4.67 4.67 0 0 1 1.07 3.26zm-6.29 0c0 2 .74 3 2.21 3s2.19-1 2.19-3-.73-3-2.2-3a1.9 1.9 0 0 0 -1.68.77 4 4 0 0 0 -.55 2.23z"/><path d="m253.75 4.91a4.51 4.51 0 0 1 .91.08l-.18 1.71a3.59 3.59 0 0 0 -.81-.09 2.36 2.36 0 0 0 -1.79.72 2.62 2.62 0 0 0 -.68 1.87v4.51h-1.84v-8.64h1.44l.2 1.52h.1a3.38 3.38 0 0 1 1.12-1.22 2.7 2.7 0 0 1 1.53-.46z"/><path d="m263.9 13.71-1.11-4c-.14-.43-.38-1.42-.74-3h-.05q-.45 2.11-.72 3l-1.14 4h-2l-2.42-8.64h1.88l1.1 4.26c.25 1.05.43 1.95.53 2.7h.05c0-.38.13-.82.24-1.31a10.37 10.37 0 0 1 .27-1.1l1.32-4.55h2l1.27 4.55q.12.38.3 1.17a9.77 9.77 0 0 1 .2 1.23h.07a25.67 25.67 0 0 1 .54-2.69l1.12-4.26h1.84l-2.45 8.64z"/><path d="m275.14 13.71-.37-1.2h-.06a3.64 3.64 0 0 1 -1.26 1.07 4 4 0 0 1 -1.63.29 2.73 2.73 0 0 1 -2-.69 2.57 2.57 0 0 1 -.72-1.95 2.27 2.27 0 0 1 1-2 5.74 5.74 0 0 1 3-.74l1.49-.05v-.44a1.74 1.74 0 0 0 -.39-1.24 1.6 1.6 0 0 0 -1.2-.41 4.16 4.16 0 0 0 -1.27.2 8.62 8.62 0 0 0 -1.13.45l-.6-1.34a6.4 6.4 0 0 1 1.54-.55 7 7 0 0 1 1.58-.2 3.74 3.74 0 0 1 2.49.72 2.81 2.81 0 0 1 .84 2.26v5.82zm-2.74-1.25a2.3 2.3 0 0 0 1.6-.56 2 2 0 0 0 .6-1.56v-.75h-1.11a3.73 3.73 0 0 0 -1.88.44 1.29 1.29 0 0 0 -.59 1.18 1.13 1.13 0 0 0 .34.89 1.43 1.43 0 0 0 1.04.36z"/><path d="m283.29 4.91a4.51 4.51 0 0 1 .91.08l-.2 1.71a3.59 3.59 0 0 0 -.81-.09 2.36 2.36 0 0 0 -1.79.72 2.62 2.62 0 0 0 -.68 1.87v4.51h-1.82v-8.64h1.44l.24 1.52h.1a3.38 3.38 0 0 1 1.12-1.22 2.67 2.67 0 0 1 1.49-.46z"/><path d="m288.65 13.87a3 3 0 0 1 -2.52-1.17 5.25 5.25 0 0 1 -.91-3.29 5.3 5.3 0 0 1 .92-3.31 3 3 0 0 1 2.54-1.19 3 3 0 0 1 2.6 1.26h.09a10.69 10.69 0 0 1 -.13-1.47v-3.15h1.84v12.16h-1.44l-.32-1.13h-.08a2.94 2.94 0 0 1 -2.59 1.29zm.49-1.49a2 2 0 0 0 1.65-.63 3.34 3.34 0 0 0 .53-2.07v-.26a3.83 3.83 0 0 0 -.53-2.32 2 2 0 0 0 -1.66-.69 1.68 1.68 0 0 0 -1.49.79 4 4 0 0 0 -.53 2.24 3.9 3.9 0 0 0 .51 2.19 1.72 1.72 0 0 0 1.52.75z"/><path d="m307.62 5.74a3.31 3.31 0 0 1 -1.17 2.74 5.13 5.13 0 0 1 -3.34 1h-1.18v4.27h-1.87v-11.46h3.29a5 5 0 0 1 3.2.87 3.14 3.14 0 0 1 1.07 2.58zm-5.69 2.13h1a3.58 3.58 0 0 0 2.11-.5 1.86 1.86 0 0 0 .67-1.57 1.76 1.76 0 0 0 -.6-1.46 2.94 2.94 0 0 0 -1.88-.49h-1.29z"/><path d="m313.88 4.91a4.62 4.62 0 0 1 .92.08l-.18 1.71a3.59 3.59 0 0 0 -.81-.09 2.36 2.36 0 0 0 -1.79.72 2.62 2.62 0 0 0 -.68 1.87v4.51h-1.84v-8.64h1.44l.24 1.52h.1a3.38 3.38 0 0 1 1.12-1.22 2.66 2.66 0 0 1 1.48-.46z"/><path d="m324 9.38a4.68 4.68 0 0 1 -1.09 3.3 3.89 3.89 0 0 1 -3 1.19 4.08 4.08 0 0 1 -2.14-.55 3.58 3.58 0 0 1 -1.43-1.57 5.37 5.37 0 0 1 -.5-2.37 4.69 4.69 0 0 1 1.08-3.29 3.93 3.93 0 0 1 3-1.18 3.83 3.83 0 0 1 3 1.21 4.72 4.72 0 0 1 1.08 3.26zm-6.29 0c0 2 .74 3 2.21 3s2.19-1 2.19-3-.74-3-2.2-3a1.87 1.87 0 0 0 -1.68.77 3.87 3.87 0 0 0 -.55 2.23z"/><path d="m327.71 9.3-2.89-4.23h2.09l2 3 2-3h2.08l-2.99 4.23 3 4.41h-2l-2.13-3.23-2.13 3.23h-2.07z"/><path d="m333.88 5.07h2l1.76 4.9a9.07 9.07 0 0 1 .53 2h.07a7.7 7.7 0 0 1 .25-1c.13-.4.79-2.35 2-5.82h2l-3.69 9.79c-.67 1.8-1.79 2.69-3.36 2.69a5.23 5.23 0 0 1 -1.19-.13v-1.5a4.51 4.51 0 0 0 .95.09 1.93 1.93 0 0 0 1.8-1.57l.32-.81z"/><path d="m350 13.71h-1.85v-11.42h6.44v1.58h-4.59v3.57h4.3v1.56h-4.3z"/><path d="m358.19 13.71h-1.84v-12.16h1.84z"/><path d="m368.43 9.38a4.68 4.68 0 0 1 -1.09 3.3 3.89 3.89 0 0 1 -3 1.19 4.08 4.08 0 0 1 -2.14-.55 3.58 3.58 0 0 1 -1.43-1.57 5.37 5.37 0 0 1 -.5-2.37 4.69 4.69 0 0 1 1.08-3.29 3.93 3.93 0 0 1 3-1.18 3.83 3.83 0 0 1 3 1.21 4.67 4.67 0 0 1 1.08 3.26zm-6.29 0c0 2 .74 3 2.21 3s2.19-1 2.19-3-.73-3-2.2-3a1.9 1.9 0 0 0 -1.68.77 3.87 3.87 0 0 0 -.52 2.23z"/><path d="m377.53 13.71-1.12-4c-.14-.43-.38-1.42-.74-3h-.07c-.3 1.41-.54 2.41-.71 3l-1.15 4h-2l-2.43-8.64h1.88l1.1 4.26c.25 1.05.43 1.95.53 2.7.05-.38.13-.82.24-1.31s.2-.86.27-1.1l1.32-4.55h2l1.35 4.55c.07.25.17.64.29 1.17a10.17 10.17 0 0 1 .21 1.23h.06a23.75 23.75 0 0 1 .55-2.69l1.11-4.26h1.78l-2.44 8.64z"/><path d="m378.93 153.24v-5.71h.66v5.71z"/><path d="m384.1 153.24v-2.77a1.1 1.1 0 0 0 -.24-.78 1 1 0 0 0 -.74-.26 1.22 1.22 0 0 0 -1 .37 1.82 1.82 0 0 0 -.31 1.2v2.24h-.65v-4.24h.53l.1.59a1.19 1.19 0 0 1 .55-.49 1.79 1.79 0 0 1 .81-.18 1.66 1.66 0 0 1 1.16.37 1.6 1.6 0 0 1 .39 1.2v2.79z"/><path d="m387.6 152.78a1.88 1.88 0 0 0 .34 0h.25v.49a1.17 1.17 0 0 1 -.31.09h-.37c-.83 0-1.24-.44-1.24-1.31v-2.55h-.61v-.31l.61-.27.27-.91h.38v1h1.24v.5h-1.24v2.49a.9.9 0 0 0 .18.6.62.62 0 0 0 .5.18z"/><path d="m391 153.32a1.94 1.94 0 0 1 -1.5-.58 2.21 2.21 0 0 1 -.55-1.6 2.5 2.5 0 0 1 .51-1.65 1.68 1.68 0 0 1 1.37-.61 1.62 1.62 0 0 1 1.27.53 2 2 0 0 1 .47 1.4v.41h-2.95a1.68 1.68 0 0 0 .38 1.14 1.32 1.32 0 0 0 1 .39 3.38 3.38 0 0 0 1.37-.29v.54a3.28 3.28 0 0 1 -1.39.28zm-.18-3.9a1.07 1.07 0 0 0 -.82.34 1.46 1.46 0 0 0 -.36.93h2.23a1.44 1.44 0 0 0 -.27-.94 1 1 0 0 0 -.83-.33z"/><path d="m395.71 148.88a2.59 2.59 0 0 1 .51.05l-.09.6a2.23 2.23 0 0 0 -.47-.06 1.15 1.15 0 0 0 -.89.42 1.56 1.56 0 0 0 -.37 1.05v2.3h-.65v-4.24h.54l.07.79a1.81 1.81 0 0 1 .58-.64 1.3 1.3 0 0 1 .77-.27z"/><path d="m400.15 153.24v-2.77a1.15 1.15 0 0 0 -.23-.78 1 1 0 0 0 -.75-.26 1.22 1.22 0 0 0 -1 .37 1.88 1.88 0 0 0 -.31 1.2v2.24h-.65v-4.24h.53l.11.59a1.22 1.22 0 0 1 .56-.49 1.74 1.74 0 0 1 .8-.18 1.66 1.66 0 0 1 1.16.37 1.6 1.6 0 0 1 .39 1.2v2.79z"/><path d="m404.08 153.32a1.94 1.94 0 0 1 -1.5-.58 2.21 2.21 0 0 1 -.55-1.6 2.5 2.5 0 0 1 .51-1.65 1.69 1.69 0 0 1 1.37-.61 1.61 1.61 0 0 1 1.27.53 2 2 0 0 1 .47 1.4v.41h-2.95a1.68 1.68 0 0 0 .38 1.14 1.32 1.32 0 0 0 1 .39 3.34 3.34 0 0 0 1.37-.29v.54a3.25 3.25 0 0 1 -.65.21 3.21 3.21 0 0 1 -.72.11zm-.18-3.9a1.07 1.07 0 0 0 -.82.34 1.46 1.46 0 0 0 -.36.93h2.28a1.44 1.44 0 0 0 -.28-.94 1 1 0 0 0 -.82-.33z"/><path d="m408.3 152.78a1.83 1.83 0 0 0 .33 0h.26v.49a1.3 1.3 0 0 1 -.31.09h-.37c-.83 0-1.25-.44-1.25-1.31v-2.55h-.61v-.31l.61-.27.28-.91h.37v1h1.24v.5h-1.24v2.49a.85.85 0 0 0 .19.6.62.62 0 0 0 .5.18z"/><path d="m549.45 158.07a2.39 2.39 0 0 1 -.54 1.66 2 2 0 0 1 -1.52.59 2.1 2.1 0 0 1 -1.07-.27 1.88 1.88 0 0 1 -.71-.79 2.64 2.64 0 0 1 -.25-1.19 2.35 2.35 0 0 1 .54-1.64 2 2 0 0 1 1.52-.59 1.87 1.87 0 0 1 1.48.61 2.29 2.29 0 0 1 .55 1.62zm-3.15 0q0 1.5 1.11 1.5c.73 0 1.09-.5 1.09-1.5s-.36-1.48-1.1-1.48a1 1 0 0 0 -.84.39 2 2 0 0 0 -.26 1.09z"/><path d="m552.82 155.84a2.71 2.71 0 0 1 .46 0l-.09.86a1.84 1.84 0 0 0 -.41-.05 1.18 1.18 0 0 0 -.89.36 1.29 1.29 0 0 0 -.34.93v2.26h-.92v-4.32h.72l.12.76a1.65 1.65 0 0 1 .56-.61 1.34 1.34 0 0 1 .79-.19z"/><path d="m554.17 154.78a.5.5 0 0 1 .13-.38.53.53 0 0 1 .39-.14.5.5 0 0 1 .37.14.51.51 0 0 1 .14.38.51.51 0 0 1 -.14.37.49.49 0 0 1 -.37.13.53.53 0 0 1 -.39-.13.51.51 0 0 1 -.13-.37zm1 5.46h-.92v-4.32h.92z"/><path d="m560.22 155.92v.5l-.74.14a1 1 0 0 1 .17.34 1.16 1.16 0 0 1 .07.42 1.33 1.33 0 0 1 -.46 1.05 1.91 1.91 0 0 1 -1.27.38 2.17 2.17 0 0 1 -.38 0 .52.52 0 0 0 -.3.43.24.24 0 0 0 .14.22 1.22 1.22 0 0 0 .51.08h.76a1.68 1.68 0 0 1 1.08.3 1.08 1.08 0 0 1 .37.88 1.27 1.27 0 0 1 -.6 1.13 3.15 3.15 0 0 1 -1.75.4 2.41 2.41 0 0 1 -1.35-.31 1 1 0 0 1 -.47-.88.93.93 0 0 1 .25-.67 1.36 1.36 0 0 1 .7-.38.65.65 0 0 1 -.3-.25.64.64 0 0 1 0-.77 1.4 1.4 0 0 1 .4-.34 1.16 1.16 0 0 1 -.54-.47 1.35 1.35 0 0 1 -.21-.76 1.39 1.39 0 0 1 .44-1.09 1.87 1.87 0 0 1 1.27-.39h.38.3zm-3.39 5a.52.52 0 0 0 .26.46 1.46 1.46 0 0 0 .76.16 2.27 2.27 0 0 0 1.11-.21.65.65 0 0 0 .37-.57.45.45 0 0 0 -.2-.41 1.77 1.77 0 0 0 -.75-.11h-.69a1 1 0 0 0 -.63.18.59.59 0 0 0 -.23.49zm.39-3.59a.85.85 0 0 0 .21.62.78.78 0 0 0 .6.22c.53 0 .8-.28.8-.85a1 1 0 0 0 -.2-.65.9.9 0 0 0 -1.2 0 .93.93 0 0 0 -.21.65z"/><path d="m561.11 154.78a.5.5 0 0 1 .13-.38.53.53 0 0 1 .39-.14.52.52 0 0 1 .38.14.5.5 0 0 1 .13.38.51.51 0 0 1 -.13.37.52.52 0 0 1 -.38.13.53.53 0 0 1 -.39-.13.51.51 0 0 1 -.13-.37zm1 5.46h-.92v-4.32h.92z"/><path d="m567.29 160.24h-.92v-2.66a1.17 1.17 0 0 0 -.2-.74.76.76 0 0 0 -.64-.25 1 1 0 0 0 -.85.35 1.89 1.89 0 0 0 -.27 1.15v2.15h-.92v-4.32h.72l.13.57a1.23 1.23 0 0 1 .55-.48 1.91 1.91 0 0 1 .8-.17 1.38 1.38 0 0 1 1.55 1.58z"/><path d="m573.55 159a1.12 1.12 0 0 1 -.46 1 2.18 2.18 0 0 1 -1.32.34 3.19 3.19 0 0 1 -1.39-.26v-.8a3.35 3.35 0 0 0 1.42.36c.57 0 .85-.17.85-.52a.42.42 0 0 0 -.09-.27 1.46 1.46 0 0 0 -.31-.23l-.6-.26a2.78 2.78 0 0 1 -1-.58 1 1 0 0 1 -.26-.75 1 1 0 0 1 .44-.86 2.1 2.1 0 0 1 1.22-.31 3.51 3.51 0 0 1 1.44.31l-.3.69a3.2 3.2 0 0 0 -1.17-.29c-.49 0-.73.14-.73.42a.4.4 0 0 0 .19.34 4.11 4.11 0 0 0 .83.39 4 4 0 0 1 .78.38 1 1 0 0 1 .35.39 1.13 1.13 0 0 1 .11.51z"/><path d="m576.58 160.32a2.11 2.11 0 0 1 -1.58-.59 2.22 2.22 0 0 1 -.57-1.62 2.45 2.45 0 0 1 .53-1.66 2 2 0 0 1 2.8-.09 2 2 0 0 1 .5 1.43v.5h-2.88a1.35 1.35 0 0 0 .34 1 1.15 1.15 0 0 0 .9.34 3.17 3.17 0 0 0 .71-.07 4 4 0 0 0 .71-.24v.68a2.84 2.84 0 0 1 -.68.22 3.71 3.71 0 0 1 -.78.1zm-.17-3.78a.9.9 0 0 0 -.7.28 1.31 1.31 0 0 0 -.32.8h2a1.28 1.28 0 0 0 -.26-.81.9.9 0 0 0 -.72-.27z"/><path d="m581.64 155.84a2.81 2.81 0 0 1 .46 0l-.09.86a1.84 1.84 0 0 0 -.41-.05 1.17 1.17 0 0 0 -.89.36 1.29 1.29 0 0 0 -.34.93v2.26h-.92v-4.32h.72l.12.76a1.74 1.74 0 0 1 .56-.61 1.35 1.35 0 0 1 .79-.19z"/><path d="m584.33 160.24-1.64-4.32h1l.88 2.51a4.93 4.93 0 0 1 .27 1 8.14 8.14 0 0 1 .28-1l.87-2.51h1l-1.65 4.32z"/><path d="m589.59 160.32a2.09 2.09 0 0 1 -1.57-.59 2.22 2.22 0 0 1 -.57-1.62 2.4 2.4 0 0 1 .53-1.66 1.79 1.79 0 0 1 1.44-.61 1.81 1.81 0 0 1 1.36.52 2 2 0 0 1 .49 1.43v.5h-2.88a1.44 1.44 0 0 0 .34 1 1.19 1.19 0 0 0 .91.34 3.23 3.23 0 0 0 .71-.07 4 4 0 0 0 .71-.24v.68a3 3 0 0 1 -.68.22 3.74 3.74 0 0 1 -.79.1zm-.17-3.78a.91.91 0 0 0 -.7.28 1.3 1.3 0 0 0 -.31.8h2a1.18 1.18 0 0 0 -.26-.81.87.87 0 0 0 -.73-.27z"/><path d="m594.66 155.84a2.81 2.81 0 0 1 .46 0l-.09.86a1.92 1.92 0 0 0 -.41-.05 1.15 1.15 0 0 0 -.89.36 1.29 1.29 0 0 0 -.35.93v2.26h-.91v-4.32h.72l.12.76a1.74 1.74 0 0 1 .56-.61 1.35 1.35 0 0 1 .79-.19z"/><path d="m595.83 158.05a6.11 6.11 0 0 1 .3-1.94 4.78 4.78 0 0 1 .88-1.58h.8a5.84 5.84 0 0 0 -.84 1.65 6.17 6.17 0 0 0 -.28 1.86 6.06 6.06 0 0 0 .28 1.85 5.77 5.77 0 0 0 .83 1.62h-.8a4.56 4.56 0 0 1 -.88-1.55 6 6 0 0 1 -.29-1.91z"/><path d="m601.16 155.25a1.55 1.55 0 0 0 -1.27.57 2.47 2.47 0 0 0 -.46 1.57 2.43 2.43 0 0 0 .45 1.59 1.55 1.55 0 0 0 1.28.54 3.2 3.2 0 0 0 .7-.07 6.82 6.82 0 0 0 .71-.19v.81a4.53 4.53 0 0 1 -1.52.25 2.43 2.43 0 0 1 -1.93-.76 3.17 3.17 0 0 1 -.67-2.17 3.45 3.45 0 0 1 .33-1.56 2.29 2.29 0 0 1 .94-1 2.91 2.91 0 0 1 1.45-.35 3.57 3.57 0 0 1 1.62.37l-.34.77a5.53 5.53 0 0 0 -.61-.24 2.2 2.2 0 0 0 -.68-.13z"/><path d="m605.58 158.05a5.67 5.67 0 0 1 -.31 1.91 4.52 4.52 0 0 1 -.87 1.55h-.79a5.62 5.62 0 0 0 .82-1.62 5.77 5.77 0 0 0 .29-1.85 6.13 6.13 0 0 0 -.29-1.86 5.56 5.56 0 0 0 -.83-1.65h.8a4.93 4.93 0 0 1 .88 1.59 6.05 6.05 0 0 1 .3 1.93z"/><path d="m549.45 227.07a2.39 2.39 0 0 1 -.54 1.66 2 2 0 0 1 -1.52.59 2.1 2.1 0 0 1 -1.07-.27 1.88 1.88 0 0 1 -.71-.79 2.64 2.64 0 0 1 -.25-1.19 2.35 2.35 0 0 1 .54-1.64 2 2 0 0 1 1.52-.59 1.87 1.87 0 0 1 1.48.61 2.29 2.29 0 0 1 .55 1.62zm-3.15 0q0 1.5 1.11 1.5c.73 0 1.09-.5 1.09-1.5s-.36-1.48-1.1-1.48a1 1 0 0 0 -.84.39 2 2 0 0 0 -.26 1.09z"/><path d="m552.82 224.84a2.71 2.71 0 0 1 .46 0l-.09.86a1.84 1.84 0 0 0 -.41-.05 1.18 1.18 0 0 0 -.89.36 1.29 1.29 0 0 0 -.34.93v2.26h-.92v-4.32h.72l.12.76a1.65 1.65 0 0 1 .56-.61 1.34 1.34 0 0 1 .79-.19z"/><path d="m554.17 223.78a.5.5 0 0 1 .13-.38.53.53 0 0 1 .39-.14.5.5 0 0 1 .37.14.51.51 0 0 1 .14.38.51.51 0 0 1 -.14.37.49.49 0 0 1 -.37.13.53.53 0 0 1 -.39-.13.51.51 0 0 1 -.13-.37zm1 5.46h-.92v-4.32h.92z"/><path d="m560.22 224.92v.5l-.74.14a1 1 0 0 1 .17.34 1.16 1.16 0 0 1 .07.42 1.33 1.33 0 0 1 -.46 1.05 2 2 0 0 1 -1.27.38 2.17 2.17 0 0 1 -.38 0 .52.52 0 0 0 -.3.43.24.24 0 0 0 .14.22 1.22 1.22 0 0 0 .51.08h.76a1.68 1.68 0 0 1 1.08.3 1.08 1.08 0 0 1 .37.88 1.27 1.27 0 0 1 -.6 1.13 3.15 3.15 0 0 1 -1.75.4 2.41 2.41 0 0 1 -1.35-.31 1 1 0 0 1 -.47-.88.93.93 0 0 1 .25-.67 1.36 1.36 0 0 1 .7-.38.65.65 0 0 1 -.3-.25.65.65 0 0 1 -.12-.36.62.62 0 0 1 .14-.41 1.4 1.4 0 0 1 .4-.34 1.16 1.16 0 0 1 -.54-.47 1.35 1.35 0 0 1 -.21-.76 1.39 1.39 0 0 1 .44-1.09 1.87 1.87 0 0 1 1.27-.39h.38a1.3 1.3 0 0 1 .3 0zm-3.39 5a.52.52 0 0 0 .26.46 1.46 1.46 0 0 0 .76.16 2.27 2.27 0 0 0 1.11-.21.65.65 0 0 0 .37-.57.45.45 0 0 0 -.2-.41 1.62 1.62 0 0 0 -.75-.11h-.69a1 1 0 0 0 -.63.18.59.59 0 0 0 -.23.49zm.39-3.59a.85.85 0 0 0 .21.62.78.78 0 0 0 .6.22c.53 0 .8-.28.8-.85a1 1 0 0 0 -.2-.65.9.9 0 0 0 -1.2 0 .93.93 0 0 0 -.21.65z"/><path d="m561.11 223.78a.5.5 0 0 1 .13-.38.53.53 0 0 1 .39-.14.52.52 0 0 1 .38.14.5.5 0 0 1 .13.38.51.51 0 0 1 -.13.37.52.52 0 0 1 -.38.13.53.53 0 0 1 -.39-.13.51.51 0 0 1 -.13-.37zm1 5.46h-.92v-4.32h.92z"/><path d="m567.29 229.24h-.92v-2.66a1.17 1.17 0 0 0 -.2-.74.76.76 0 0 0 -.64-.25 1 1 0 0 0 -.85.35 1.89 1.89 0 0 0 -.27 1.15v2.15h-.92v-4.32h.72l.13.57a1.23 1.23 0 0 1 .55-.48 1.91 1.91 0 0 1 .8-.17 1.38 1.38 0 0 1 1.55 1.58z"/><path d="m573.55 228a1.12 1.12 0 0 1 -.46 1 2.18 2.18 0 0 1 -1.32.34 3.19 3.19 0 0 1 -1.39-.26v-.8a3.35 3.35 0 0 0 1.42.36c.57 0 .85-.17.85-.52a.42.42 0 0 0 -.09-.27 1.46 1.46 0 0 0 -.31-.23l-.6-.26a2.78 2.78 0 0 1 -1-.58 1 1 0 0 1 -.26-.75 1 1 0 0 1 .44-.86 2.1 2.1 0 0 1 1.22-.31 3.51 3.51 0 0 1 1.44.31l-.3.69a3.2 3.2 0 0 0 -1.17-.29c-.49 0-.73.14-.73.42a.4.4 0 0 0 .19.34 4.11 4.11 0 0 0 .83.39 4 4 0 0 1 .78.38 1 1 0 0 1 .35.39 1.13 1.13 0 0 1 .11.51z"/><path d="m576.58 229.32a2.11 2.11 0 0 1 -1.58-.59 2.22 2.22 0 0 1 -.57-1.62 2.45 2.45 0 0 1 .53-1.66 2 2 0 0 1 2.8-.09 2 2 0 0 1 .5 1.43v.5h-2.88a1.35 1.35 0 0 0 .34 1 1.15 1.15 0 0 0 .9.34 3.17 3.17 0 0 0 .71-.07 4 4 0 0 0 .71-.24v.68a2.84 2.84 0 0 1 -.68.22 3.71 3.71 0 0 1 -.78.1zm-.17-3.78a.9.9 0 0 0 -.7.28 1.31 1.31 0 0 0 -.32.8h2a1.28 1.28 0 0 0 -.26-.81.9.9 0 0 0 -.72-.27z"/><path d="m581.64 224.84a2.81 2.81 0 0 1 .46 0l-.09.86a1.84 1.84 0 0 0 -.41-.05 1.17 1.17 0 0 0 -.89.36 1.29 1.29 0 0 0 -.34.93v2.26h-.92v-4.32h.72l.12.76a1.74 1.74 0 0 1 .56-.61 1.35 1.35 0 0 1 .79-.19z"/><path d="m584.33 229.24-1.64-4.32h1l.88 2.51a4.93 4.93 0 0 1 .27 1 8.14 8.14 0 0 1 .28-1l.87-2.51h1l-1.65 4.32z"/><path d="m589.59 229.32a2.09 2.09 0 0 1 -1.57-.59 2.22 2.22 0 0 1 -.57-1.62 2.4 2.4 0 0 1 .53-1.66 1.79 1.79 0 0 1 1.44-.61 1.81 1.81 0 0 1 1.36.52 2 2 0 0 1 .49 1.43v.5h-2.88a1.44 1.44 0 0 0 .34 1 1.19 1.19 0 0 0 .91.34 3.23 3.23 0 0 0 .71-.07 4 4 0 0 0 .71-.24v.68a3 3 0 0 1 -.68.22 3.74 3.74 0 0 1 -.79.1zm-.17-3.78a.91.91 0 0 0 -.7.28 1.3 1.3 0 0 0 -.31.8h2a1.18 1.18 0 0 0 -.26-.81.87.87 0 0 0 -.73-.27z"/><path d="m594.66 224.84a2.81 2.81 0 0 1 .46 0l-.09.86a1.92 1.92 0 0 0 -.41-.05 1.15 1.15 0 0 0 -.89.36 1.29 1.29 0 0 0 -.35.93v2.26h-.91v-4.32h.72l.12.76a1.74 1.74 0 0 1 .56-.61 1.35 1.35 0 0 1 .79-.19z"/><path d="m595.83 227.05a6.11 6.11 0 0 1 .3-1.94 4.78 4.78 0 0 1 .88-1.58h.8a5.84 5.84 0 0 0 -.84 1.65 6.17 6.17 0 0 0 -.28 1.86 6.06 6.06 0 0 0 .28 1.85 5.77 5.77 0 0 0 .83 1.62h-.8a4.56 4.56 0 0 1 -.88-1.55 6 6 0 0 1 -.29-1.91z"/><path d="m601.16 224.25a1.55 1.55 0 0 0 -1.27.57 2.47 2.47 0 0 0 -.46 1.57 2.43 2.43 0 0 0 .45 1.59 1.55 1.55 0 0 0 1.28.54 3.2 3.2 0 0 0 .7-.07 6.82 6.82 0 0 0 .71-.19v.81a4.53 4.53 0 0 1 -1.52.25 2.43 2.43 0 0 1 -1.93-.76 3.17 3.17 0 0 1 -.67-2.17 3.45 3.45 0 0 1 .33-1.56 2.29 2.29 0 0 1 .94-1 2.91 2.91 0 0 1 1.45-.35 3.57 3.57 0 0 1 1.62.37l-.34.77a5.53 5.53 0 0 0 -.61-.24 2.2 2.2 0 0 0 -.68-.13z"/><path d="m605.58 227.05a5.67 5.67 0 0 1 -.31 1.91 4.61 4.61 0 0 1 -.87 1.55h-.79a5.62 5.62 0 0 0 .82-1.62 5.77 5.77 0 0 0 .29-1.85 6.13 6.13 0 0 0 -.29-1.86 5.56 5.56 0 0 0 -.83-1.65h.8a4.83 4.83 0 0 1 .88 1.59 6.05 6.05 0 0 1 .3 1.93z"/><path d="m13.47 158.32a2 2 0 0 1 -1.5-.58 2.25 2.25 0 0 1 -.55-1.6 2.5 2.5 0 0 1 .51-1.65 1.69 1.69 0 0 1 1.37-.61 1.61 1.61 0 0 1 1.27.53 2 2 0 0 1 .47 1.4v.41h-2.95a1.68 1.68 0 0 0 .39 1.14 1.31 1.31 0 0 0 1 .39 3.34 3.34 0 0 0 1.37-.29v.54a3.25 3.25 0 0 1 -.65.21 3.21 3.21 0 0 1 -.73.11zm-.18-3.9a1.08 1.08 0 0 0 -.82.34 1.58 1.58 0 0 0 -.36.93h2.24a1.39 1.39 0 0 0 -.28-.94 1 1 0 0 0 -.78-.33z"/><path d="m17.37 156.05-1.48-2.05h.73l1.13 1.64 1.13-1.64h.73l-1.49 2.09 1.57 2.19h-.69l-1.2-1.73-1.21 1.73h-.73z"/><path d="m23.31 158.24-.13-.61a1.85 1.85 0 0 1 -.64.55 2 2 0 0 1 -.79.14 1.42 1.42 0 0 1 -1-.33 1.2 1.2 0 0 1 -.36-.93c0-.87.69-1.32 2.07-1.36h.73v-.26a1.07 1.07 0 0 0 -.22-.75.87.87 0 0 0 -.69-.24 2.8 2.8 0 0 0 -1.21.33l-.2-.49a2.61 2.61 0 0 1 .69-.27 2.78 2.78 0 0 1 .76-.1 1.59 1.59 0 0 1 1.13.34 1.41 1.41 0 0 1 .37 1.09v2.92zm-1.46-.46a1.32 1.32 0 0 0 .95-.33 1.22 1.22 0 0 0 .34-.93v-.38h-.65a2.41 2.41 0 0 0 -1.11.24.72.72 0 0 0 -.34.66.67.67 0 0 0 .21.54.9.9 0 0 0 .6.2z"/><path d="m30.7 158.24v-2.78a1.12 1.12 0 0 0 -.22-.77.84.84 0 0 0 -.68-.26 1.1 1.1 0 0 0 -.89.35 1.67 1.67 0 0 0 -.29 1.07v2.39h-.62v-2.78a1.12 1.12 0 0 0 -.22-.77.84.84 0 0 0 -.68-.26 1 1 0 0 0 -.89.37 1.94 1.94 0 0 0 -.29 1.19v2.25h-.65v-4.24h.53l.11.59a1.18 1.18 0 0 1 .52-.49 1.53 1.53 0 0 1 .74-.18 1.28 1.28 0 0 1 1.32.73 1.34 1.34 0 0 1 .55-.53 1.73 1.73 0 0 1 .83-.2 1.5 1.5 0 0 1 1.09.37 1.69 1.69 0 0 1 .36 1.2v2.79z"/><path d="m34.79 158.32a1.76 1.76 0 0 1 -.76-.16 1.46 1.46 0 0 1 -.58-.47h-.05a4.47 4.47 0 0 1 .05.71v1.76h-.65v-6.16h.53l.09.59a1.46 1.46 0 0 1 .58-.59 1.7 1.7 0 0 1 .76-.16 1.61 1.61 0 0 1 1.32.58 2.58 2.58 0 0 1 .46 1.64 2.47 2.47 0 0 1 -.47 1.63 1.59 1.59 0 0 1 -1.28.63zm-.09-3.89a1.13 1.13 0 0 0 -1 .37 1.91 1.91 0 0 0 -.3 1.15v.15a2.15 2.15 0 0 0 .3 1.29 1.14 1.14 0 0 0 1 .39 1 1 0 0 0 .87-.45 2.23 2.23 0 0 0 .31-1.24 2.12 2.12 0 0 0 -.31-1.23 1 1 0 0 0 -.87-.43z"/><path d="m38.49 158.24h-.65v-6.08h.65z"/><path d="m41.8 158.32a1.93 1.93 0 0 1 -1.49-.58 2.21 2.21 0 0 1 -.55-1.6 2.5 2.5 0 0 1 .51-1.65 1.68 1.68 0 0 1 1.37-.61 1.62 1.62 0 0 1 1.27.53 2 2 0 0 1 .47 1.4v.41h-3a1.68 1.68 0 0 0 .38 1.14 1.32 1.32 0 0 0 1 .39 3.3 3.3 0 0 0 1.36-.29v.54a2.89 2.89 0 0 1 -.65.21 3.15 3.15 0 0 1 -.67.11zm-.17-3.9a1.05 1.05 0 0 0 -.82.34 1.52 1.52 0 0 0 -.37.93h2.24a1.44 1.44 0 0 0 -.27-.94 1 1 0 0 0 -.78-.33z"/><path d="m44.46 157.83a.58.58 0 0 1 .12-.4.42.42 0 0 1 .34-.13.48.48 0 0 1 .36.13.58.58 0 0 1 .12.4.53.53 0 0 1 -.13.39.45.45 0 0 1 -.35.13.48.48 0 0 1 -.33-.12.56.56 0 0 1 -.13-.4z"/><path d="m48.44 158.32a1.83 1.83 0 0 1 -1.44-.57 2.35 2.35 0 0 1 -.51-1.62 2.44 2.44 0 0 1 .51-1.66 1.88 1.88 0 0 1 1.48-.59 2.68 2.68 0 0 1 .62.07 2 2 0 0 1 .48.15l-.2.55a4.41 4.41 0 0 0 -.47-.14 1.93 1.93 0 0 0 -.45 0c-.87 0-1.3.55-1.3 1.66a1.92 1.92 0 0 0 .32 1.21 1.1 1.1 0 0 0 .94.42 2.79 2.79 0 0 0 1.1-.23v.58a2.47 2.47 0 0 1 -1.08.17z"/><path d="m54.29 156.1a2.37 2.37 0 0 1 -.53 1.63 1.87 1.87 0 0 1 -1.46.59 1.94 1.94 0 0 1 -1-.27 1.82 1.82 0 0 1 -.68-.77 2.73 2.73 0 0 1 -.25-1.18 2.33 2.33 0 0 1 .53-1.63 1.85 1.85 0 0 1 1.45-.59 1.81 1.81 0 0 1 1.43.6 2.38 2.38 0 0 1 .51 1.62zm-3.26 0a2.12 2.12 0 0 0 .32 1.25 1.31 1.31 0 0 0 1.94 0 2 2 0 0 0 .33-1.25 2 2 0 0 0 -.33-1.24 1.32 1.32 0 0 0 -1.94 0 2 2 0 0 0 -.35 1.24z"/><path d="m61 158.24v-2.78a1.12 1.12 0 0 0 -.22-.77.85.85 0 0 0 -.68-.26 1.1 1.1 0 0 0 -.89.35 1.61 1.61 0 0 0 -.29 1.07v2.39h-.65v-2.78a1.12 1.12 0 0 0 -.22-.77.85.85 0 0 0 -.68-.26 1.06 1.06 0 0 0 -.9.37 2 2 0 0 0 -.27 1.2v2.25h-.65v-4.25h.53l.1.59a1.21 1.21 0 0 1 .51-.49 1.6 1.6 0 0 1 .75-.18 1.26 1.26 0 0 1 1.31.73 1.36 1.36 0 0 1 .56-.53 1.73 1.73 0 0 1 .83-.2 1.51 1.51 0 0 1 1.09.37 1.69 1.69 0 0 1 .36 1.2v2.79z"/><path d="m13.47 255.32a2 2 0 0 1 -1.5-.58 2.25 2.25 0 0 1 -.55-1.6 2.5 2.5 0 0 1 .51-1.65 1.69 1.69 0 0 1 1.37-.61 1.61 1.61 0 0 1 1.27.53 2 2 0 0 1 .47 1.4v.41h-2.95a1.68 1.68 0 0 0 .39 1.14 1.31 1.31 0 0 0 1 .39 3.34 3.34 0 0 0 1.37-.29v.54a3.25 3.25 0 0 1 -.65.21 3.21 3.21 0 0 1 -.73.11zm-.18-3.9a1.08 1.08 0 0 0 -.82.34 1.58 1.58 0 0 0 -.36.93h2.24a1.39 1.39 0 0 0 -.28-.94 1 1 0 0 0 -.78-.33z"/><path d="m17.37 253.05-1.48-2.05h.73l1.13 1.64 1.13-1.64h.73l-1.49 2.09 1.57 2.19h-.69l-1.2-1.73-1.21 1.73h-.73z"/><path d="m23.31 255.24-.13-.61a1.85 1.85 0 0 1 -.64.55 2 2 0 0 1 -.79.14 1.42 1.42 0 0 1 -1-.33 1.2 1.2 0 0 1 -.36-.93c0-.87.69-1.32 2.07-1.36h.73v-.26a1 1 0 0 0 -.22-.74.84.84 0 0 0 -.69-.25 2.8 2.8 0 0 0 -1.21.33l-.2-.49a2.61 2.61 0 0 1 .69-.27 2.78 2.78 0 0 1 .76-.1 1.59 1.59 0 0 1 1.13.34 1.41 1.41 0 0 1 .37 1.09v2.92zm-1.46-.46a1.32 1.32 0 0 0 .95-.33 1.22 1.22 0 0 0 .34-.93v-.38h-.65a2.41 2.41 0 0 0 -1.11.24.73.73 0 0 0 -.34.67.66.66 0 0 0 .21.53.9.9 0 0 0 .6.2z"/><path d="m30.7 255.24v-2.78a1.12 1.12 0 0 0 -.22-.77.84.84 0 0 0 -.68-.26 1.1 1.1 0 0 0 -.89.35 1.67 1.67 0 0 0 -.29 1.07v2.39h-.62v-2.78a1.12 1.12 0 0 0 -.22-.77.84.84 0 0 0 -.68-.26 1 1 0 0 0 -.89.37 2 2 0 0 0 -.29 1.2v2.24h-.65v-4.24h.53l.11.59a1.18 1.18 0 0 1 .52-.49 1.53 1.53 0 0 1 .74-.18 1.28 1.28 0 0 1 1.32.73 1.34 1.34 0 0 1 .55-.53 1.73 1.73 0 0 1 .83-.2 1.5 1.5 0 0 1 1.09.37 1.69 1.69 0 0 1 .36 1.2v2.79z"/><path d="m34.79 255.32a1.91 1.91 0 0 1 -.76-.15 1.58 1.58 0 0 1 -.58-.48h-.05a4.47 4.47 0 0 1 .05.71v1.76h-.65v-6.16h.53l.09.59a1.46 1.46 0 0 1 .58-.59 1.7 1.7 0 0 1 .76-.16 1.61 1.61 0 0 1 1.32.58 2.58 2.58 0 0 1 .46 1.64 2.52 2.52 0 0 1 -.47 1.64 1.61 1.61 0 0 1 -1.28.62zm-.09-3.89a1.13 1.13 0 0 0 -1 .37 1.91 1.91 0 0 0 -.3 1.15v.15a2.15 2.15 0 0 0 .3 1.29 1.14 1.14 0 0 0 1 .39 1 1 0 0 0 .87-.45 2.23 2.23 0 0 0 .31-1.24 2.12 2.12 0 0 0 -.31-1.23 1.06 1.06 0 0 0 -.87-.43z"/><path d="m38.49 255.24h-.65v-6.08h.65z"/><path d="m41.8 255.32a1.93 1.93 0 0 1 -1.49-.58 2.21 2.21 0 0 1 -.55-1.6 2.5 2.5 0 0 1 .51-1.65 1.68 1.68 0 0 1 1.37-.61 1.62 1.62 0 0 1 1.27.53 2 2 0 0 1 .47 1.4v.41h-3a1.68 1.68 0 0 0 .38 1.14 1.32 1.32 0 0 0 1 .39 3.3 3.3 0 0 0 1.36-.29v.54a2.89 2.89 0 0 1 -.65.21 3.15 3.15 0 0 1 -.67.11zm-.17-3.9a1.05 1.05 0 0 0 -.82.34 1.52 1.52 0 0 0 -.37.93h2.24a1.44 1.44 0 0 0 -.27-.94 1 1 0 0 0 -.78-.33z"/><path d="m44.46 254.83a.58.58 0 0 1 .12-.4.42.42 0 0 1 .34-.13.48.48 0 0 1 .36.13.58.58 0 0 1 .12.4.53.53 0 0 1 -.13.39.45.45 0 0 1 -.35.13.48.48 0 0 1 -.33-.12.56.56 0 0 1 -.13-.4z"/><path d="m48.44 255.32a1.83 1.83 0 0 1 -1.44-.57 2.35 2.35 0 0 1 -.51-1.62 2.44 2.44 0 0 1 .51-1.66 1.88 1.88 0 0 1 1.48-.59 2.68 2.68 0 0 1 .62.07 2 2 0 0 1 .48.15l-.2.56a2.88 2.88 0 0 0 -.47-.15 1.93 1.93 0 0 0 -.45 0c-.87 0-1.3.55-1.3 1.66a1.92 1.92 0 0 0 .32 1.21 1.1 1.1 0 0 0 .94.42 2.79 2.79 0 0 0 1.1-.23v.58a2.34 2.34 0 0 1 -1.08.17z"/><path d="m54.29 253.1a2.37 2.37 0 0 1 -.53 1.63 1.87 1.87 0 0 1 -1.46.59 1.94 1.94 0 0 1 -1-.27 1.82 1.82 0 0 1 -.68-.77 2.73 2.73 0 0 1 -.25-1.18 2.33 2.33 0 0 1 .53-1.63 1.85 1.85 0 0 1 1.45-.59 1.81 1.81 0 0 1 1.43.6 2.38 2.38 0 0 1 .51 1.62zm-3.26 0a2.12 2.12 0 0 0 .32 1.25 1.31 1.31 0 0 0 1.94 0 2 2 0 0 0 .33-1.25 2 2 0 0 0 -.33-1.24 1.32 1.32 0 0 0 -1.94 0 2 2 0 0 0 -.35 1.24z"/><path d="m61 255.24v-2.78a1.12 1.12 0 0 0 -.22-.77.85.85 0 0 0 -.68-.26 1.1 1.1 0 0 0 -.89.35 1.61 1.61 0 0 0 -.29 1.07v2.39h-.65v-2.78a1.12 1.12 0 0 0 -.22-.77.85.85 0 0 0 -.68-.26 1.06 1.06 0 0 0 -.9.37 2 2 0 0 0 -.28 1.2v2.24h-.65v-4.24h.53l.1.59a1.21 1.21 0 0 1 .51-.49 1.6 1.6 0 0 1 .75-.18 1.26 1.26 0 0 1 1.31.73 1.36 1.36 0 0 1 .56-.53 1.73 1.73 0 0 1 .83-.2 1.51 1.51 0 0 1 1.09.37 1.69 1.69 0 0 1 .36 1.2v2.79z"/></g></svg>